<svg width="1280" height="520" viewBox="0 0 1280 520" fill="none" xmlns="http://www.w3.org/2000/svg" role="img" aria-label="Eval Delta workflow diagram">
<rect width="1280" height="520" rx="28" fill="#051b1f"/>
<text x="72" y="82" fill="#ecfeff" font-family="Inter, ui-sans-serif, system-ui" font-size="34" font-weight="800">Eval Delta workflow</text>
<text x="72" y="122" fill="#a5f3fc" font-family="Inter, ui-sans-serif, system-ui" font-size="20">Detect overall and slice-level regressions between paired LLM...</text>
<rect x="72" y="176" width="255" height="142" rx="22" fill="#06b6d4" opacity=".18" stroke="#06b6d4" stroke-width="3"/>
<circle cx="106" cy="210" r="17" fill="#f97316" opacity=".9"/>
<text x="101" y="217" fill="#051b1f" font-family="Inter, ui-sans-serif, system-ui" font-size="18" font-weight="900">1</text>
<text x="136" y="220" fill="#ecfeff" font-family="Inter, ui-sans-serif, system-ui" font-size="21" font-weight="800">Example</text>
<text x="96" y="268" fill="#a5f3fc" font-family="Inter, ui-sans-serif, system-ui" font-size="16">examples/candidate.jsonl</text>
<path d="M336 247h20" stroke="#f97316" stroke-width="5" stroke-linecap="round"/>
<path d="M348 235l12 12-12 12" stroke="#f97316" stroke-width="5" stroke-linecap="round" stroke-linejoin="round"/>
<rect x="365" y="176" width="255" height="142" rx="22" fill="#ecfeff" opacity=".07" stroke="#f97316" stroke-width="3"/>
<circle cx="399" cy="210" r="17" fill="#f97316" opacity=".9"/>
<text x="394" y="217" fill="#051b1f" font-family="Inter, ui-sans-serif, system-ui" font-size="18" font-weight="900">2</text>
<text x="429" y="220" fill="#ecfeff" font-family="Inter, ui-sans-serif, system-ui" font-size="21" font-weight="800">CLI</text>
<text x="389" y="268" fill="#a5f3fc" font-family="Inter, ui-sans-serif, system-ui" font-size="16">eval-delta</text>
<path d="M629 247h20" stroke="#f97316" stroke-width="5" stroke-linecap="round"/>
<path d="M641 235l12 12-12 12" stroke="#f97316" stroke-width="5" stroke-linecap="round" stroke-linejoin="round"/>
<rect x="658" y="176" width="255" height="142" rx="22" fill="#ecfeff" opacity=".07" stroke="#06b6d4" stroke-width="3"/>
<circle cx="692" cy="210" r="17" fill="#f97316" opacity=".9"/>
<text x="687" y="217" fill="#051b1f" font-family="Inter, ui-sans-serif, system-ui" font-size="18" font-weight="900">3</text>
<text x="722" y="220" fill="#ecfeff" font-family="Inter, ui-sans-serif, system-ui" font-size="21" font-weight="800">Core</text>
<text x="682" y="268" fill="#a5f3fc" font-family="Inter, ui-sans-serif, system-ui" font-size="16">parse + transform</text>
<path d="M922 247h20" stroke="#f97316" stroke-width="5" stroke-linecap="round"/>
<path d="M934 235l12 12-12 12" stroke="#f97316" stroke-width="5" stroke-linecap="round" stroke-linejoin="round"/>
<rect x="951" y="176" width="255" height="142" rx="22" fill="#06b6d4" opacity=".18" stroke="#f97316" stroke-width="3"/>
<circle cx="985" cy="210" r="17" fill="#f97316" opacity=".9"/>
<text x="980" y="217" fill="#051b1f" font-family="Inter, ui-sans-serif, system-ui" font-size="18" font-weight="900">4</text>
<text x="1015" y="220" fill="#ecfeff" font-family="Inter, ui-sans-serif, system-ui" font-size="21" font-weight="800">Output</text>
<text x="975" y="268" fill="#a5f3fc" font-family="Inter, ui-sans-serif, system-ui" font-size="16">terminal/report</text>
<path d="M72 460h1136" stroke="#06b6d4" stroke-width="8" stroke-linecap="round" opacity=".56"/>
<text x="72" y="492" fill="#a5f3fc" font-family="ui-monospace, SFMono-Regular, Menlo, monospace" font-size="16">MODEL EVALUATION</text>
</svg>